<svg xmlns="http://www.w3.org/2000/svg" viewBox="0 0 48 24" width="480" height="240">
  <rect x="0" y="0" width="48" height="24" fill="#0d1117"/>
  <rect x="6" y="10" width="36" height="8" fill="#e74c3c"/>
  <rect x="8" y="8" width="32" height="2" fill="#c0392b"/>
  <rect x="10" y="7" width="8" height="1" fill="#58a6ff"/><rect x="22" y="7" width="8" height="1" fill="#58a6ff"/>
  <rect x="30" y="7" width="6" height="1" fill="#58a6ff"/>
  <rect x="10" y="12" width="6" height="4" fill="#58a6ff"/><rect x="22" y="12" width="6" height="4" fill="#58a6ff"/>
  <rect x="10" y="11" width="6" height="1" fill="#79c0ff"/><rect x="22" y="11" width="6" height="1" fill="#79c0ff"/>
  <rect x="4" y="14" width="4" height="4" fill="#21262d"/><rect x="4" y="16" width="4" height="2" fill="#484f58"/>
  <rect x="40" y="14" width="4" height="4" fill="#21262d"/><rect x="40" y="16" width="4" height="2" fill="#484f58"/>
  <rect x="6" y="18" width="36" height="1" fill="#21262d"/>
  <rect x="5" y="15" width="2" height="2" fill="#484f58"/><rect x="41" y="15" width="2" height="2" fill="#484f58"/>
  <rect x="38" y="9" width="1" height="1" fill="#ffd43b"/><rect x="39" y="9" width="1" height="1" fill="#ffd43b"/>
  <rect x="38" y="10" width="2" height="1" fill="#ffd43b"/>
  <text x="24" y="22" text-anchor="middle" fill="#8b949e" font-size="2" font-family="monospace">AUTOMOTIVE VALIDATION</text>
</svg>