<svg xmlns="http://www.w3.org/2000/svg" viewBox="0 0 48 24" width="480" height="240">
  <rect x="0" y="0" width="48" height="24" fill="#0d1117"/>
  <rect x="8" y="4" width="3" height="3" fill="#3776ab"/><rect x="7" y="7" width="3" height="3" fill="#3776ab"/>
  <rect x="8" y="10" width="3" height="3" fill="#3776ab"/><rect x="10" y="13" width="3" height="3" fill="#3776ab"/>
  <rect x="13" y="14" width="3" height="2" fill="#3776ab"/><rect x="16" y="13" width="3" height="3" fill="#3776ab"/>
  <rect x="19" y="12" width="3" height="3" fill="#3776ab"/><rect x="22" y="11" width="3" height="3" fill="#3776ab"/>
  <rect x="25" y="10" width="3" height="3" fill="#3776ab"/><rect x="28" y="9" width="3" height="3" fill="#3776ab"/>
  <rect x="31" y="8" width="3" height="3" fill="#3776ab"/><rect x="34" y="7" width="3" height="3" fill="#3776ab"/>
  <rect x="37" y="6" width="3" height="3" fill="#3776ab"/><rect x="39" y="5" width="2" height="2" fill="#3776ab"/>
  <rect x="12" y="6" width="3" height="3" fill="#ffd43b"/><rect x="15" y="7" width="3" height="3" fill="#ffd43b"/>
  <rect x="18" y="8" width="3" height="3" fill="#ffd43b"/><rect x="21" y="9" width="3" height="3" fill="#ffd43b"/>
  <rect x="24" y="10" width="3" height="3" fill="#ffd43b"/><rect x="27" y="11" width="3" height="3" fill="#ffd43b"/>
  <rect x="30" y="12" width="3" height="3" fill="#ffd43b"/><rect x="33" y="13" width="3" height="3" fill="#ffd43b"/>
  <rect x="36" y="14" width="3" height="3" fill="#ffd43b"/><rect x="38" y="15" width="2" height="2" fill="#ffd43b"/>
  <rect x="11" y="9" width="1" height="1" fill="#ffd43b"/><rect x="14" y="10" width="1" height="1" fill="#3776ab"/>
  <rect x="17" y="11" width="1" height="1" fill="#ffd43b"/><rect x="20" y="12" width="1" height="1" fill="#3776ab"/>
  <text x="24" y="22" text-anchor="middle" fill="#8b949e" font-size="2" font-family="monospace">PYTHON &amp; AUTOMATION</text>
</svg>