<svg xmlns="http://www.w3.org/2000/svg" viewBox="0 0 48 32" width="480" height="320">
  <rect x="0" y="0" width="48" height="32" fill="#0d1117"/>
  <rect x="18" y="3" width="12" height="10" fill="#e8edf5" stroke="#1a2432"/>
  <rect x="19" y="4" width="10" height="8" fill="#2a3442"/>
  <rect x="20" y="5" width="8" height="6" fill="#0d1117"/>
  <rect x="22" y="7" width="1" height="1" fill="#3ddc84"/>
  <rect x="25" y="7" width="1" height="1" fill="#3ddc84"/>
  <rect x="22" y="9" width="4" height="1" fill="#3ddc84"/>
  <rect x="21" y="1" width="1" height="2" fill="#8b949e"/>
  <rect x="27" y="1" width="1" height="2" fill="#8b949e"/>
  <rect x="20" y="0" width="1" height="1" fill="#8b949e"/>
  <rect x="28" y="0" width="1" height="1" fill="#8b949e"/>
  <rect x="23" y="13" width="2" height="1" fill="#3ddc84"/>
  <rect x="19" y="14" width="10" height="8" fill="#e8edf5" stroke="#1a2432"/>
  <rect x="14" y="10" width="2" height="2" fill="#3ddc84"/>
  <rect x="12" y="8" width="2" height="2" fill="#3ddc84"/>
  <rect x="10" y="6" width="2" height="2" fill="#3ddc84"/>
  <rect x="8" y="5" width="2" height="2" fill="#e8edf5"/>
  <rect x="9" y="4" width="1" height="1" fill="#e8edf5"/>
  <rect x="16" y="14" width="3" height="2" fill="#3ddc84"/>
  <rect x="29" y="14" width="3" height="2" fill="#3ddc84"/>
  <rect x="31" y="16" width="2" height="2" fill="#3ddc84"/>
  <rect x="32" y="18" width="2" height="2" fill="#3ddc84"/>
  <rect x="33" y="20" width="2" height="2" fill="#e8edf5"/>
  <rect x="21" y="22" width="2" height="3" fill="#3ddc84"/>
  <rect x="25" y="22" width="2" height="3" fill="#3ddc84"/>
  <rect x="20" y="25" width="4" height="3" fill="#e8edf5" rx="1"/>
  <rect x="24" y="25" width="4" height="3" fill="#e8edf5" rx="1"/>
</svg>